<?xml version="1.0" standalone="no"?>
<!DOCTYPE svg PUBLIC "-//W3C//DTD SVG 20010904//EN"
 "http://www.w3.org/TR/2001/REC-SVG-20010904/DTD/svg10.dtd">
<svg version="1.0" xmlns="http://www.w3.org/2000/svg"
 width="300.000000pt" height="158.000000pt" viewBox="0 0 300.000000 158.000000"
 preserveAspectRatio="xMidYMid meet">
<metadata>
Created by potrace 1.10, written by Peter Selinger 2001-2011
</metadata>
<g transform="translate(0.000000,158.000000) scale(0.100000,-0.100000)"

fill="#8d5858" stroke="none">
<path d="M2240 1293 c0 -96 -1 -101 -22 -108 l-23 -7 25 -8 c24 -8 24 -8 3 -9
l-23 -1 0 -266 c0 -151 -4 -263 -9 -260 -24 15 -38 -39 -41 -156 0 -10 -6 -18
-13 -18 -10 0 -12 22 -9 95 3 66 1 95 -7 95 -6 0 -11 16 -11 36 0 27 -4 35
-16 32 -12 -2 -17 -18 -20 -57 -3 -30 -5 -56 -7 -56 -1 -1 -16 -5 -33 -8 -29
-6 -32 -3 -38 23 -5 27 -10 30 -41 30 l-36 0 7 -45 c5 -37 3 -45 -9 -45 -11 0
-17 -12 -19 -41 l-3 -40 -22 21 c-23 21 -23 21 -23 0 0 -11 -4 -20 -9 -20 -5
0 -9 32 -9 71 -1 84 -21 122 -24 44 0 -28 0 -62 1 -77 1 -14 -3 -29 -10 -33
-8 -6 -10 18 -7 94 l4 101 -49 0 c-44 0 -48 -2 -42 -20 4 -12 2 -20 -6 -20 -8
0 -10 -12 -7 -38 5 -34 3 -38 -18 -40 -22 -2 -24 2 -24 39 0 36 -2 40 -15 29
-9 -7 -27 -10 -45 -6 -19 3 -30 1 -30 -5 0 -8 -5 -7 -15 1 -16 13 -18 10 -15
-32 1 -19 -3 -28 -13 -28 -10 0 -13 -7 -10 -20 3 -11 0 -20 -6 -20 -6 0 -11
-9 -11 -20 0 -11 -3 -20 -8 -20 -4 0 -6 17 -4 39 2 21 -1 42 -7 45 -7 5 -11
-7 -11 -33 0 -23 -5 -41 -11 -41 -7 0 -9 31 -7 90 l3 90 -32 0 c-29 0 -33 -4
-39 -34 -3 -19 -3 -39 1 -45 3 -6 -1 -11 -9 -11 -12 0 -16 11 -16 46 0 41 -2
46 -20 41 -17 -4 -20 0 -20 33 0 36 -2 38 -27 36 -19 -3 -27 -9 -25 -20 2 -11
-5 -16 -23 -16 -24 0 -25 -3 -26 -57 0 -32 -4 -76 -8 -98 -6 -27 -10 29 -12
175 -3 215 -4 256 -9 275 -1 6 -2 13 -2 16 1 4 -8 15 -18 24 -14 13 -20 32
-21 64 -1 52 -16 114 -18 74 -1 -12 -5 -24 -10 -27 -5 -3 -6 -26 -3 -51 3 -27
1 -45 -6 -45 -5 0 -17 -15 -26 -34 -13 -28 -16 -71 -16 -233 0 -192 -4 -243
-20 -243 -4 0 -5 45 -2 100 l5 100 -29 0 -30 0 4 -105 c4 -105 -1 -122 -28
-90 -9 10 -11 39 -8 93 5 80 -3 102 -37 102 -11 0 -15 12 -15 50 0 43 -3 50
-20 50 -19 0 -20 -7 -20 -105 0 -95 -2 -105 -18 -105 -16 0 -18 8 -14 90 l4
90 -26 0 -26 0 0 -136 c0 -120 -2 -134 -15 -120 -8 8 -15 19 -15 25 0 6 -4 11
-10 11 -6 0 -10 30 -10 69 l0 68 -30 -1 c-30 -1 -30 -2 -30 -58 0 -32 -4 -58
-10 -58 -6 0 -10 26 -10 58 0 54 -1 57 -25 58 -24 2 -25 -1 -25 -49 0 -28 -3
-47 -7 -44 -10 11 -33 -63 -33 -106 0 -24 -4 -36 -10 -32 -7 4 -10 55 -10 133
1 134 -7 219 -22 239 -5 6 -13 55 -17 110 -5 54 -9 82 -10 63 0 -20 -7 -60
-15 -90 -8 -30 -17 -77 -21 -105 -4 -27 -9 -57 -12 -65 -3 -8 -5 -73 -3 -144
1 -103 -1 -127 -12 -124 -9 3 -14 27 -16 71 l-3 67 -39 0 c-21 0 -46 3 -56 7
-15 6 -16 -2 -12 -80 2 -48 1 -87 -3 -87 -4 0 -10 -8 -12 -17 -3 -10 -5 1 -6
25 -1 30 -5 42 -16 42 -11 0 -15 -12 -15 -45 0 -25 -4 -45 -10 -45 -6 0 -10
26 -10 58 l0 57 -35 0 -35 0 0 -72 c0 -39 -4 -75 -10 -78 -6 -4 -10 10 -10 34
0 41 0 41 -37 41 l-38 0 0 -95 0 -95 1438 0 c921 0 1437 3 1437 10 0 17 -42
90 -52 90 -5 0 -6 5 -2 12 4 6 -1 17 -12 25 -18 13 -18 15 -1 24 12 7 15 17
11 35 -4 16 -1 31 10 43 12 13 14 21 6 26 -6 4 -14 5 -16 2 -13 -12 -46 36
-40 57 7 28 -3 40 -21 25 -14 -12 -17 5 -16 86 1 33 -1 37 -11 24 -12 -17 -12
-85 0 -251 4 -69 3 -102 -5 -112 -6 -8 -11 -18 -10 -22 5 -32 -4 -35 -20 -7
-21 33 -86 83 -110 83 -29 0 -40 34 -41 118 l0 82 -30 0 -30 0 0 -90 c0 -53
-4 -90 -10 -90 -6 0 -10 86 -10 238 l0 237 -36 -1 -35 -1 -2 -188 c-2 -140 -5
-189 -14 -192 -10 -4 -13 35 -13 169 -1 164 -2 174 -23 200 l-22 27 -33 -25
-32 -25 0 -150 c0 -126 -2 -149 -15 -149 -13 0 -15 37 -15 274 l0 275 -22 4
-23 4 23 2 c26 1 30 21 4 21 -16 0 -18 11 -20 97 -4 129 -12 133 -12 6z
m-1099 -334 c4 -19 10 -113 13 -209 8 -207 15 -245 40 -245 21 0 46 66 46 121
0 18 6 34 14 37 16 6 56 -32 56 -54 0 -8 7 -25 16 -37 12 -17 24 -22 47 -20
28 3 32 0 37 -27 3 -19 17 -37 39 -52 41 -28 48 -23 92 53 17 30 35 54 41 54
5 0 23 -11 40 -25 16 -14 37 -25 47 -25 21 0 56 36 66 68 10 34 25 16 25 -31
0 -66 18 -90 75 -103 65 -14 80 -6 110 62 23 51 26 54 46 43 12 -6 39 -9 60
-6 l39 5 0 -43 c0 -48 31 -98 56 -88 22 8 44 57 44 99 0 25 9 51 26 76 l27 38
17 -33 c21 -39 49 -45 76 -16 16 18 19 39 22 156 3 119 5 134 20 131 15 -3 18
-24 22 -166 4 -146 7 -165 24 -177 13 -10 24 -11 37 -5 26 15 29 13 29 -18 0
-51 54 -96 75 -62 4 7 22 -2 45 -22 21 -18 53 -42 71 -53 18 -11 34 -26 37
-33 3 -10 -259 -12 -1300 -10 l-1303 3 -3 27 c-3 26 -1 27 27 22 26 -5 31 -2
46 26 13 26 19 29 31 19 20 -17 88 4 109 34 8 12 15 42 15 67 0 25 4 51 9 59
15 23 31 2 31 -40 0 -37 26 -79 48 -79 34 0 45 59 52 278 0 6 4 12 9 12 5 0
12 -61 16 -135 6 -113 10 -137 26 -151 18 -16 20 -16 39 1 11 10 20 29 20 42
0 13 7 37 15 54 13 25 19 28 36 19 10 -6 24 -8 30 -5 5 4 30 -15 54 -41 39
-42 46 -46 61 -33 9 8 23 29 31 47 7 18 21 32 30 32 21 0 53 29 54 49 1 32 18
-23 18 -62 1 -26 9 -45 26 -62 28 -28 38 -31 54 -11 6 7 22 11 35 9 45 -9 54
23 61 227 3 102 8 200 11 218 6 42 26 37 35 -9z m1719 -578 c16 -31 12 -41
-15 -41 -20 0 -25 5 -25 23 0 40 22 50 40 18z"/>
</g>
</svg>
